<?xml version="1.0" encoding="utf-8"?>
<!-- Generator: Adobe Illustrator 25.3.1, SVG Export Plug-In . SVG Version: 6.00 Build 0)  -->
<svg version="1.1" id="Layer_1" xmlns="http://www.w3.org/2000/svg" xmlns:xlink="http://www.w3.org/1999/xlink" x="0px" y="0px"
	 viewBox="0 0 2300.2 282" style="enable-background:new 0 0 2300.2 282;" xml:space="preserve">
<style type="text/css">
	.st0{fill:#FFFFFF;}
	.st1{fill:url(#SVGID_1_);}
	.st2{opacity:0.2;fill:#F2F2F2;enable-background:new    ;}
	.st3{fill:url(#SVGID_2_);}
	.st4{opacity:0.67;fill:#FFFFFF;enable-background:new    ;}
	.st5{opacity:0.49;fill:#FFFFFF;enable-background:new    ;}
	.st6{opacity:0.48;fill:#FFFFFF;enable-background:new    ;}
	.st7{opacity:0.79;fill:#FFFFFF;enable-background:new    ;}
	.st8{fill:#27B462;}
	.st9{fill:#414042;}
	.st10{font-family:'Avenir-Light';}
	.st11{font-size:120px;}
	.st12{fill:#939598;}
</style>
<g>
	<g>
		<g>
			<path class="st0" d="M121.3,88.6c0.3,19.9-20.4,33.2-22,34.2c-2.2,1.4-11.2,6.6-23.9,7.1c-5.6,0.2-19.2,0.7-30.2-8.8
				c-13.2-11.4-13.1-28.7-13-33.4c0-2.3,0-7.3,2.1-13.2c1.6-4.7,4-8.5,5.2-10.2c0,0,1.1-1.7,2.2-3.2c2.8-3.6,10-10.4,21.1-13.9
				c4.5-1.5,18-5.8,31.2,0.4c5.7,2.7,9.4,6.4,12.3,9.4c7.2,7.3,10.5,14.6,11.2,16.3C118.9,76.6,121.2,82.1,121.3,88.6z"/>
			<g>
				<g>
					<g>
						<g>
							<g>
								
									<linearGradient id="SVGID_1_" gradientUnits="userSpaceOnUse" x1="39.9373" y1="1757.1466" x2="111.0858" y2="1806.9652" gradientTransform="matrix(1 0 0 1 0 -1694)">
									<stop  offset="0" style="stop-color:#7AC689"/>
									<stop  offset="0.171" style="stop-color:#026C3C"/>
									<stop  offset="1" style="stop-color:#7EC353"/>
								</linearGradient>
								<path class="st1" d="M120.8,83.1c0.7,2.8,0.7,6.9,0,11c-0.7,4.8-2.8,7.6-4.8,11c-1.3,2-4.1,6.1-8.4,10.4
									c-2.8,2.8-11.7,11-25.5,13.8c-2,0-24.2,4.1-38.7-11c-7.6-8.4-8.9-17.3-9.7-22.7c-0.7-4.8-2.8-14.5,2-24.9
									c6.9-16.6,24.2-22.1,27-23.4c0,0,11.7-3.5,24.2-0.7c4.8,0.7,8.9,2.8,9.7,3.5c2,0.7,4.1,2,6.9,4.1c2,1.3,4.1,3.5,7.6,8.9
									C115.9,70.1,119.5,75.5,120.8,83.1z"/>
							</g>
						</g>
					</g>
					<path class="st2" d="M112.4,106.6c2.8-0.7,2.8-0.7,3.5-0.7c0,0.7-1.3,2-4.1,5.6c-1.3,1.3-2.8,2.8-4.1,4.8
						c-0.7,0.7-2.8,2.8-4.8,4.1c-2.8,2-6.1,4.1-10.4,6.1c-2.8,1.3-6.9,2.8-10.4,3.5c-0.7,0-6.9,0.7-14.5,0
						c-4.1-0.7-8.9-1.3-13.8-4.1c-2-0.7-4.1-2-6.1-3.5c-2-1.3-3.5-2.8-4.8-4.1c-2-2-3.5-4.1-4.1-6.1c-0.7-1.3-2-2.8-2-4.8
						c-0.7-2-1.3-3.5-1.3-4.8c-0.7-1.3-0.7-2.8-0.7-4.1c0-0.7,0-2-0.7-2.8c-0.7-4.1-0.7-4.8-0.7-6.1s0-2.8,0.7-2.8
						c0.7-0.7,2,0,2.8,0.7c2,0.7,2,2.8,2.8,3.5c2,4.8,2.8,7.6,2.8,10.4c0.7,6.9,6.1,14.5,12.5,17.9c0,0,8.4,4.8,20.1,4.1
						c0.7,0,0.7,0,0.7,0c5.6-0.7,8.4-2.8,11-4.1c0.7-0.7,6.1-2.8,8.9-4.8C100.7,110.7,103.5,110.1,112.4,106.6z"/>
					
						<radialGradient id="SVGID_2_" cx="2642.7488" cy="3518.6516" r="60.6146" fx="2665.707" fy="3537.522" gradientTransform="matrix(0.3731 0 0 0.3307 -911.9136 -1078.5887)" gradientUnits="userSpaceOnUse">
						<stop  offset="0" style="stop-color:#73C16B"/>
						<stop  offset="0.3078" style="stop-color:#0F8040"/>
						<stop  offset="0.4732" style="stop-color:#0F8040"/>
						<stop  offset="1" style="stop-color:#164020"/>
					</radialGradient>
					<path class="st3" d="M69.1,107.3c-6.9-0.7-16.6-6.1-17.9-15.8c-0.7-6.1,1.3-11.7,2-13c0.7-1.3,1.3-3.5,3.5-6.1
						c2-2,3.5-3.5,5.6-4.8c0.7-0.7,3.5-2,6.1-3.5c2-0.7,8.4-2.8,15.3-0.7c0.7,0,11.7,4.1,13,15.3c0,2,0.7,7.6-2.8,14.5
						c-4.1,7.6-10.4,10.4-12.5,11.7C75.9,108.1,71.1,107.3,69.1,107.3z"/>
					<path class="st4" d="M54.6,121.8c1.3,0.7,3.5,1.3,3.5,2c0,0.7-2.2,0.7-2.2,0.7c-4.1,0.7-9.7-5.6-12.5-8.4
						c-1.3-1.3-2-2.8-2.6-3.3c0,0-0.7-0.7-0.7-2c-0.7-0.7-0.7-1.3-0.7-2c0,0,0-0.7,0-1.3c0.7,0,0.7,0,1.3,0.7
						c0.7,0.7,0.7,0.7,0.7,0.7c2,2.8,4.8,8.4,8.4,10.4C50.5,120.3,51.8,121.1,54.6,121.8z"/>
					<path class="st0" d="M54.6,119.8"/>
					<path class="st5" d="M69.6,103.8c4.1-0.7,5.6-4.1,8.4-3.5c0,0,2,0.7,2,2c0,0.7,0,0.7,0,1.3c0,0-0.7,0.7-1.3,1.3
						c-1.3,0.7-2.8,0.7-4.8,0.7c-2,0-3.5,0-4.1,0c-4.8-0.7-8.4-2.8-8.4-2.8c-5.6-3.5-7.6-8.4-8.4-11c0-0.7,0-2,0.7-2.8
						c0.7-0.7,1.3-0.7,2-0.7c1.3,0.7,0,4.8,2,8.9c0.7,1.3,2,2,3.5,3.5C62.2,102.5,65.5,104.5,69.6,103.8z"/>
					<path class="st6" d="M91,70.1c0,0.7,1.3,2,0.7,3.5C91,75,88.2,75,86.9,75c-3.5,0-4.1-1.3-8.4-2.8c-0.7,0-3.5-0.7-6.1-0.7
						c-4.8,0.7-6.9,2.8-8.9,2c-1.3-0.7-2-2.8-1.3-4.1c0.7-2,2.8-2.8,6.1-3.5c2.8-0.7,5.6-2,10.4-1.3C82.1,65.9,88.4,65.9,91,70.1z"
						/>
					<path class="st6" d="M95.3,75.5v0.7c-0.7,0.7-2.8,0.7-3.5,0c0-0.7,0.7-2,2-2C94.5,74.2,95.3,75,95.3,75.5z"/>
					<path class="st7" d="M106.3,59c0.7,2,0.7,4.8-0.7,5.6c-1.3,0.7-4.1-0.7-6.9-2.8c-3.5-2-8.4-4.8-12.5-5.6
						c-6.9-2-17.3-0.7-19.3-2c-0.6-0.6-0.6-1.3-0.6-1.3c0-0.7-0.7-1.3-0.7-2.8c0,0,0-0.7,1.3-1.3c2.8-2,8.4-2,8.4-2
						c4.8,0,7.6,0,10.4,0.7c7.6,1.3,12.5,4.1,13.8,4.8C102.2,53.6,105,55.6,106.3,59z"/>
					<path class="st7" d="M111.8,67.3c-0.7,1.3-2.8,2-4.1,1.3c-2-1.3-1.3-5.6,0-6.1C109,61.8,112.4,65.3,111.8,67.3z"/>
				</g>
			</g>
		</g>
		<g>
			<path class="st8" d="M205.5,34.5v105.8c0,1.4-1.1,2.5-2.5,2.5h-5.4c-1.4,0-2.5-1.1-2.5-2.5V34.5c0-1.4,1.1-2.5,2.5-2.5h5.4
				C204.4,32,205.5,33.1,205.5,34.5z"/>
			<path class="st8" d="M245.7,49.4v76c0,1.4-1.1,2.5-2.5,2.5h-5.4c-1.4,0-2.5-1.1-2.5-2.5v-76c0-1.4,1.1-2.5,2.5-2.5h5.4
				C244.5,46.9,245.7,48,245.7,49.4z"/>
			<path class="st8" d="M265.7,30.3v114.1c0,1.4-1.1,2.5-2.5,2.5h-5.4c-1.4,0-2.5-1.1-2.5-2.5V30.3c0-1.4,1.1-2.5,2.5-2.5h5.4
				C264.6,27.8,265.7,28.9,265.7,30.3z"/>
			<path class="st8" d="M285.8,68.5v37.7c0,1.4-1.1,2.5-2.5,2.5h-5.4c-1.4,0-2.5-1.1-2.5-2.5V68.5c0-1.4,1.1-2.5,2.5-2.5h5.4
				C284.7,66,285.8,67.1,285.8,68.5z"/>
			<path class="st8" d="M225.6,74v26.8c0,1.4-1.1,2.5-2.5,2.5h-5.4c-1.4,0-2.5-1.1-2.5-2.5V74c0-1.4,1.1-2.5,2.5-2.5h5.4
				C224.4,71.5,225.6,72.6,225.6,74z"/>
			<path class="st8" d="M386.2,34.5v105.8c0,1.4-1.1,2.5-2.5,2.5h-5.4c-1.4,0-2.5-1.1-2.5-2.5V34.5c0-1.4,1.1-2.5,2.5-2.5h5.4
				C385.1,32,386.2,33.1,386.2,34.5z"/>
			<path class="st8" d="M305.9,49.4v76c0,1.4-1.1,2.5-2.5,2.5H298c-1.4,0-2.5-1.1-2.5-2.5v-76c0-1.4,1.1-2.5,2.5-2.5h5.4
				C304.8,46.9,305.9,48,305.9,49.4z"/>
			<path class="st8" d="M346.1,30.3v114.1c0,1.4-1.1,2.5-2.5,2.5h-5.4c-1.4,0-2.5-1.1-2.5-2.5V30.3c0-1.4,1.1-2.5,2.5-2.5h5.4
				C344.9,27.8,346.1,28.9,346.1,30.3z"/>
			<path class="st8" d="M326,74v26.8c0,1.4-1.1,2.5-2.5,2.5h-5.4c-1.4,0-2.5-1.1-2.5-2.5V74c0-1.4,1.1-2.5,2.5-2.5h5.4
				C324.9,71.5,326,72.6,326,74z"/>
			<path class="st8" d="M366.2,34.5v105.8c0,1.4-1.1,2.5-2.5,2.5h-5.4c-1.4,0-2.5-1.1-2.5-2.5V34.5c0-1.4,1.1-2.5,2.5-2.5h5.4
				C365,32,366.2,33.1,366.2,34.5z"/>
			<path class="st8" d="M406.3,49.4v76c0,1.4-1.1,2.5-2.5,2.5h-5.4c-1.4,0-2.5-1.1-2.5-2.5v-76c0-1.4,1.1-2.5,2.5-2.5h5.4
				C405.2,46.9,406.3,48,406.3,49.4z"/>
			<path class="st8" d="M466.6,30.3v114.1c0,1.4-1.1,2.5-2.5,2.5h-5.4c-1.4,0-2.5-1.1-2.5-2.5V30.3c0-1.4,1.1-2.5,2.5-2.5h5.4
				C465.5,27.8,466.6,28.9,466.6,30.3z"/>
			<path class="st8" d="M426.4,74v26.8c0,1.4-1.1,2.5-2.5,2.5h-5.4c-1.4,0-2.5-1.1-2.5-2.5V74c0-1.4,1.1-2.5,2.5-2.5h5.4
				C425.3,71.5,426.4,72.6,426.4,74z"/>
			<path class="st8" d="M446.5,49.4v76c0,1.4-1.1,2.5-2.5,2.5h-5.4c-1.4,0-2.5-1.1-2.5-2.5v-76c0-1.4,1.1-2.5,2.5-2.5h5.4
				C445.4,46.9,446.5,48,446.5,49.4z"/>
			<path class="st8" d="M587.1,30.3v114.1c0,1.4-1.1,2.5-2.5,2.5h-5.4c-1.4,0-2.5-1.1-2.5-2.5V30.3c0-1.4,1.1-2.5,2.5-2.5h5.4
				C586,27.8,587.1,28.9,587.1,30.3z"/>
			<path class="st8" d="M546.9,74v26.8c0,1.4-1.1,2.5-2.5,2.5H539c-1.4,0-2.5-1.1-2.5-2.5V74c0-1.4,1.1-2.5,2.5-2.5h5.4
				C545.8,71.5,546.9,72.6,546.9,74z"/>
			<path class="st8" d="M567,49.4v76c0,1.4-1.1,2.5-2.5,2.5h-5.4c-1.4,0-2.5-1.1-2.5-2.5v-76c0-1.4,1.1-2.5,2.5-2.5h5.4
				C565.9,46.9,567,48,567,49.4z"/>
			<path class="st8" d="M486.7,49.4v76c0,1.4-1.1,2.5-2.5,2.5h-5.4c-1.4,0-2.5-1.1-2.5-2.5v-76c0-1.4,1.1-2.5,2.5-2.5h5.4
				C485.5,46.9,486.7,48,486.7,49.4z"/>
			<path class="st8" d="M506.7,74v26.8c0,1.4-1.1,2.5-2.5,2.5h-5.4c-1.4,0-2.5-1.1-2.5-2.5V74c0-1.4,1.1-2.5,2.5-2.5h5.4
				C505.6,71.5,506.7,72.6,506.7,74z"/>
			<path class="st8" d="M526.8,64.6v45.6c0,1.4-1.1,2.5-2.5,2.5h-5.4c-1.4,0-2.5-1.1-2.5-2.5V64.6c0-1.4,1.1-2.5,2.5-2.5h5.4
				C525.7,62.1,526.8,63.2,526.8,64.6z"/>
			<path class="st8" d="M185.4,61.4v52c0,1.4-1.1,2.5-2.5,2.5h-5.4c-1.4,0-2.5-1.1-2.5-2.5v-52c0-1.4,1.1-2.5,2.5-2.5h5.4
				C184.3,58.9,185.4,60,185.4,61.4z"/>
			<path class="st8" d="M165.3,74v26.8c0,1.4-1.1,2.5-2.5,2.5h-5.4c-1.4,0-2.5-1.1-2.5-2.5V74c0-1.4,1.1-2.5,2.5-2.5h5.4
				C164.2,71.5,165.3,72.6,165.3,74z"/>
			<path class="st8" d="M607.2,64.6v45.6c0,1.4-1.1,2.5-2.5,2.5h-5.4c-1.4,0-2.5-1.1-2.5-2.5V64.6c0-1.4,1.1-2.5,2.5-2.5h5.4
				C606,62.1,607.2,63.2,607.2,64.6z"/>
		</g>
	</g>
	<g>
		<text transform="matrix(1 0 0 1 32.1587 230.8966)"><tspan x="0" y="0" class="st9 st10 st11">annoy</tspan><tspan x="322.6" y="0" class="st12 st10 st11">ance</tspan></text>
		<circle class="st9" cx="157.9" cy="245.2" r="9"/>
		<g>
			<path class="st9" d="M315.5,246.7h-275c-0.6,0-1.1-0.5-1.1-1.1v-2.4c0-0.6,0.5-1.1,1.1-1.1h277"/>
		</g>
		<g>
			<path class="st9" d="M328.9,242h275c0.6,0,1.1,0.5,1.1,1.1v2.4c0,0.6-0.5,1.1-1.1,1.1h-277"/>
		</g>
	</g>
</g>
</svg>
