<svg id="Layer_1" data-name="Layer 1" xmlns="http://www.w3.org/2000/svg" xmlns:xlink="http://www.w3.org/1999/xlink" viewBox="0 0 576 233.07"><defs><style>.cls-1,.cls-5,.cls-6,.cls-7,.cls-8{fill:#fff;}.cls-2{fill:url(#linear-gradient);}.cls-3{fill:#f2f2f2;opacity:0.2;}.cls-3,.cls-5,.cls-6,.cls-7,.cls-8{isolation:isolate;}.cls-4{fill:url(#radial-gradient);}.cls-5{opacity:0.67;}.cls-6{opacity:0.49;}.cls-7{opacity:0.48;}.cls-8{opacity:0.79;}.cls-9{fill:#27b462;}.cls-10{fill:#010101;}.cls-11{font-size:120px;fill:#231f20;font-family:Avenir-Light, Avenir;font-weight:300;}</style><linearGradient id="linear-gradient" x1="39.94" y1="1757.15" x2="111.09" y2="1806.97" gradientTransform="translate(0 -1694)" gradientUnits="userSpaceOnUse"><stop offset="0" stop-color="#7ac689"/><stop offset="0.17" stop-color="#026c3c"/><stop offset="1" stop-color="#7ec353"/></linearGradient><radialGradient id="radial-gradient" cx="2642.75" cy="3518.65" fx="2665.706969642546" fy="3537.522161719227" r="60.61" gradientTransform="translate(-911.91 -1078.59) scale(0.37 0.33)" gradientUnits="userSpaceOnUse"><stop offset="0" stop-color="#73c16b"/><stop offset="0.31" stop-color="#0f8040"/><stop offset="0.47" stop-color="#0f8040"/><stop offset="1" stop-color="#164020"/></radialGradient></defs><path class="cls-1" d="M121.31,88.59c.34,19.93-20.35,33.16-22,34.15a49.88,49.88,0,0,1-23.94,7.13c-5.64.22-19.18.73-30.23-8.83-13.16-11.4-13.06-28.7-13-33.36a39.55,39.55,0,0,1,2.11-13.17,48,48,0,0,1,5.15-10.16s1.11-1.71,2.23-3.18c2.77-3.63,10-10.35,21.08-13.92,4.52-1.46,18-5.81,31.22.44,5.66,2.68,9.36,6.39,12.33,9.39a53.94,53.94,0,0,1,11.23,16.33C118.86,76.57,121.2,82.05,121.31,88.59Z" transform="translate(-32.16 -27.82)"/><path class="cls-2" d="M120.76,83.15a26.82,26.82,0,0,1,0,11c-.74,4.84-2.79,7.63-4.83,11a62.25,62.25,0,0,1-8.37,10.41,51.38,51.38,0,0,1-25.48,13.76c-2,0-24.18,4.1-38.69-11-7.63-8.37-8.93-17.3-9.67-22.69-.75-4.84-2.79-14.51,2-24.92,6.89-16.56,24.18-22.14,27-23.44a53.29,53.29,0,0,1,24.18-.74c4.84.74,8.93,2.79,9.67,3.53a29,29,0,0,1,6.89,4.09c2,1.31,4.09,3.54,7.62,8.93C115.93,70.13,119.46,75.52,120.76,83.15Z" transform="translate(-32.16 -27.82)"/><path class="cls-3" d="M112.39,106.58c2.79-.74,2.79-.74,3.54-.74,0,.74-1.3,2-4.09,5.58a27.63,27.63,0,0,0-4.1,4.84,31.6,31.6,0,0,1-4.83,4.09,64.22,64.22,0,0,1-10.42,6.13A52.52,52.52,0,0,1,82.08,130a83,83,0,0,1-14.51,0c-4.09-.75-8.93-1.3-13.76-4.09a26,26,0,0,1-6.14-3.54,27.61,27.61,0,0,1-4.84-4.09,14.8,14.8,0,0,1-4.09-6.14c-.74-1.3-2.05-2.79-2.05-4.83a15.89,15.89,0,0,1-1.3-4.84,8,8,0,0,1-.74-4.09,4,4,0,0,0-.75-2.79,28.08,28.08,0,0,1-.74-6.14c0-1.3,0-2.79.74-2.79.75-.74,2.05,0,2.79.75,2.05.74,2.05,2.79,2.79,3.53,2.05,4.84,2.79,7.63,2.79,10.42.75,6.88,6.14,14.5,12.47,17.85a38.55,38.55,0,0,0,20.08,4.09h.75c5.58-.74,8.37-2.79,11-4.09.75-.74,6.14-2.79,8.93-4.83C100.68,110.68,103.47,110.12,112.39,106.58Z" transform="translate(-32.16 -27.82)"/><path class="cls-4" d="M69.06,107.33c-6.88-.75-16.56-6.14-17.86-15.81a24.76,24.76,0,0,1,2-13c.74-1.3,1.3-3.54,3.53-6.14a32.94,32.94,0,0,1,5.58-4.84c.75-.74,3.54-2,6.14-3.53a25,25,0,0,1,15.25-.74c.75,0,11.72,4.09,13,15.25A26.92,26.92,0,0,1,94,93c-4.09,7.62-10.41,10.41-12.46,11.71C75.94,108.07,71.1,107.33,69.06,107.33Z" transform="translate(-32.16 -27.82)"/><path class="cls-5" d="M54.55,121.83c1.3.75,3.53,1.31,3.53,2s-2.23.74-2.23.74c-4.09.75-9.67-5.57-12.46-8.36-1.3-1.31-2-2.79-2.6-3.35a3,3,0,0,1-.75-2,2.37,2.37,0,0,1-.74-2v-1.31c.74,0,.74,0,1.3.75l.74.74c2,2.79,4.84,8.37,8.37,10.42C50.46,120.35,51.76,121.09,54.55,121.83Z" transform="translate(-32.16 -27.82)"/><path class="cls-1" d="M54.55,119.79" transform="translate(-32.16 -27.82)"/><path class="cls-6" d="M69.62,103.79c4.09-.74,5.58-4.09,8.37-3.53,0,0,2,.74,2,2v1.3l-1.3,1.3c-1.3.74-2.79.74-4.84.74H69.8a26.38,26.38,0,0,1-8.37-2.79,19.27,19.27,0,0,1-8.37-11,4,4,0,0,1,.75-2.79,2.37,2.37,0,0,1,2-.74c1.3.74,0,4.83,2,8.92.74,1.31,2,2,3.53,3.54C62.18,102.49,65.52,104.54,69.62,103.79Z" transform="translate(-32.16 -27.82)"/><path class="cls-7" d="M91,70.13c0,.74,1.31,2,.75,3.53C91,75,88.22,75,86.91,75c-3.53,0-4.09-1.3-8.37-2.79a54.19,54.19,0,0,0-6.13-.74c-4.84.74-6.89,2.79-8.93,2a3.3,3.3,0,0,1-1.3-4.1c.74-2,2.79-2.79,6.13-3.53,2.79-.74,5.58-2,10.42-1.3C82.08,65.85,88.4,65.85,91,70.13Z" transform="translate(-32.16 -27.82)"/><path class="cls-7" d="M95.28,75.52v.75a3.08,3.08,0,0,1-3.53,0,2.18,2.18,0,0,1,2-2A1.59,1.59,0,0,1,95.28,75.52Z" transform="translate(-32.16 -27.82)"/><path class="cls-8" d="M106.26,59c.74,2.05.74,4.83-.75,5.58-1.3.74-4.09-.75-6.88-2.79-3.53-2-8.37-4.84-12.46-5.58-6.88-2-17.3-.74-19.34-2a2,2,0,0,1-.56-1.3c0-.74-.75-1.3-.75-2.79,0,0,0-.74,1.31-1.3,2.79-2.05,8.37-2.05,8.37-2.05,4.83,0,7.62,0,10.41.75a41,41,0,0,1,13.76,4.83A12.8,12.8,0,0,1,106.26,59Z" transform="translate(-32.16 -27.82)"/><path class="cls-8" d="M111.84,67.34a3.31,3.31,0,0,1-4.1,1.3c-2-1.3-1.3-5.58,0-6.14C109.05,61.76,112.39,65.29,111.84,67.34Z" transform="translate(-32.16 -27.82)"/><rect class="cls-9" x="144.86" y="82.16" width="110.82" height="10.44" rx="2.51" transform="translate(80.72 259.82) rotate(-90)"/><rect class="cls-9" x="199.9" y="82.16" width="81.06" height="10.44" rx="2.51" transform="translate(120.89 299.99) rotate(-90)"/><rect class="cls-9" x="200.96" y="82.16" width="119.12" height="10.44" rx="2.51" transform="translate(140.97 320.07) rotate(-90)"/><rect class="cls-9" x="259.24" y="82.16" width="42.72" height="10.44" rx="2.51" transform="translate(161.06 340.16) rotate(-90)"/><rect class="cls-9" x="204.43" y="82.16" width="31.83" height="10.44" rx="2.51" transform="translate(100.81 279.91) rotate(-90)"/><rect class="cls-9" x="325.61" y="82.16" width="110.82" height="10.44" rx="2.51" transform="translate(261.48 440.58) rotate(-90)"/><rect class="cls-9" x="260.15" y="82.16" width="81.06" height="10.44" rx="2.51" transform="translate(181.14 360.24) rotate(-90)"/><rect class="cls-9" x="281.29" y="82.16" width="119.12" height="10.44" rx="2.51" transform="translate(221.31 400.41) rotate(-90)"/><rect class="cls-9" x="304.85" y="82.16" width="31.83" height="10.44" rx="2.51" transform="translate(201.23 380.33) rotate(-90)"/><rect class="cls-9" x="305.53" y="82.16" width="110.82" height="10.44" rx="2.51" transform="translate(241.39 420.49) rotate(-90)"/><rect class="cls-9" x="360.57" y="82.16" width="81.06" height="10.44" rx="2.51" transform="translate(281.56 460.66) rotate(-90)"/><rect class="cls-9" x="401.79" y="82.16" width="119.12" height="10.44" rx="2.51" transform="translate(341.81 520.91) rotate(-90)"/><rect class="cls-9" x="405.27" y="82.16" width="31.83" height="10.44" rx="2.51" transform="translate(301.64 480.74) rotate(-90)"/><rect class="cls-9" x="400.74" y="82.16" width="81.06" height="10.44" rx="2.51" transform="translate(321.73 500.83) rotate(-90)"/><rect class="cls-9" x="522.3" y="82.16" width="119.12" height="10.44" rx="2.51" transform="translate(462.31 641.41) rotate(-90)"/><rect class="cls-9" x="525.77" y="82.16" width="31.83" height="10.44" rx="2.51" transform="translate(422.15 601.25) rotate(-90)"/><rect class="cls-9" x="521.24" y="82.16" width="81.06" height="10.44" rx="2.51" transform="translate(442.23 621.33) rotate(-90)"/><rect class="cls-9" x="440.91" y="82.16" width="81.06" height="10.44" rx="2.51" transform="translate(361.9 541) rotate(-90)"/><rect class="cls-9" x="485.6" y="82.16" width="31.83" height="10.44" rx="2.51" transform="translate(381.98 561.08) rotate(-90)"/><rect class="cls-9" x="496.3" y="82.16" width="50.61" height="10.44" rx="2.51" transform="translate(402.06 581.16) rotate(-90)"/><rect class="cls-9" x="151.67" y="82.16" width="57.03" height="10.44" rx="2.51" transform="translate(60.64 239.74) rotate(-90)"/><rect class="cls-9" x="144.18" y="82.16" width="31.83" height="10.44" rx="2.51" transform="translate(40.56 219.66) rotate(-90)"/><rect class="cls-9" x="576.63" y="82.16" width="50.61" height="10.44" rx="2.51" transform="translate(482.4 661.5) rotate(-90)"/><rect class="cls-10" x="6.52" y="215.03" width="562.44" height="4.65" rx="1.13"/><rect class="cls-1" x="316.78" y="240.56" width="9.22" height="9.6" transform="matrix(0.92, 0.39, -0.39, 0.92, 89.26, -133.9)"/><circle class="cls-10" cx="125.76" cy="217.36" r="9"/><text class="cls-11" transform="translate(0 203.07)">annoyance</text></svg>